<svg width="901" height="347" viewBox="0 0 901 347" xmlns="http://www.w3.org/2000/svg" xmlns:xlink="http://www.w3.org/1999/xlink"><title>Cloud Servers</title><defs><path d="M0 0h901v377H0V0z" id="path-1"/></defs><g id="Product" fill="none" fill-rule="evenodd"><g id="Background--80%" transform="translate(-377 -1978)"><g id="Cloud-Servers-" transform="translate(377 1978)"><mask id="mask-2" fill="#fff"><use xlink:href="#path-1"/></mask><g id="Group-56-Copy" mask="url(#mask-2)" fill="#D6D6E4"><g transform="translate(704.956 220.917)"><path d="M106.03 40.314a1.379 1.379 0 0 1-.163-.652c0-11.207-9.072-20.292-20.263-20.292a20.188 20.188 0 0 0-14.908 6.548 1.38 1.38 0 0 1-1.952.08 1.385 1.385 0 0 1-.08-1.955 22.969 22.969 0 0 1 11.83-6.87 30.607 30.607 0 0 0-26.01-14.406 30.606 30.606 0 0 0-26.627 15.437 1.38 1.38 0 0 1-1.395.683 20.89 20.89 0 0 0-2.955-.209 20.575 20.575 0 0 0-13.239 4.79 1.38 1.38 0 0 1-1.946-.176 1.385 1.385 0 0 1 .177-1.948 23.335 23.335 0 0 1 15.008-5.433c.812 0 1.62.041 2.42.123A33.368 33.368 0 0 1 54.483 0 33.368 33.368 0 0 1 83.04 16.034c.8-.082 1.607-.123 2.42-.123 12.901 0 23.364 10.412 23.364 23.261 0 12.849-10.463 23.261-23.365 23.261a23.34 23.34 0 0 1-11.738-3.144 1.385 1.385 0 0 1-.503-1.89 1.38 1.38 0 0 1 1.887-.505 20.58 20.58 0 0 0 10.354 2.772c10.995 0 19.975-8.566 20.57-19.352z" id="Combined-Shape" fill-rule="nonzero"/><path d="M39.731 63.327a33.418 33.418 0 0 1-5.373-3.313 23.271 23.271 0 0 1-10.944 2.717C10.484 62.73 0 52.224 0 39.26c0-.771.62-1.396 1.384-1.396A1.39 1.39 0 0 1 2.77 39.26c0 11.419 9.241 20.679 20.645 20.679 3.699 0 7.252-.975 10.376-2.798a1.375 1.375 0 0 1 1.554.115 30.697 30.697 0 0 0 4.761 3.131c.282-.489.679-.95 1.19-1.358l25.462-20.268c1.385-1.103 2.288-1.52 3.152-.74.857.775.554 1.726-.366 3.24L58.43 59.57c-.866 1.427-.425 3.305.982 4.186l8.4 5.262c2.604 1.631 2.866 4.795.568 6.84L42.63 98.787c-1.326 1.18-2.198 1.646-3.103.92-.905-.726-.65-1.687.193-3.254l11.372-21.115c.803-1.491.29-3.458-1.135-4.358l-8.298-5.238c-1.01-.636-1.655-1.492-1.929-2.414zm27.12 10.787c1.14-1.015 1.033-2.312-.257-3.12l-8.4-5.263c-2.485-1.556-3.261-4.859-1.733-7.376l9.908-16.322-23.643 18.822c-1.173.934-1.109 2.114.158 2.914l8.298 5.238c2.459 1.552 3.323 4.87 1.938 7.44l-10.237 19.01 23.969-21.343z" id="Combined-Shape"/><path d="M37.247 108.661c1.14-1.004 1.03-2.288-.264-3.09l-3.63-2.253a5.33 5.33 0 0 1-1.736-7.31l5.145-8.394L22.98 98.48c-1.178.929-1.115 2.1.15 2.891l3.574 2.234c2.458 1.537 3.322 4.825 1.936 7.373l-5.51 10.134 14.117-12.45zm-14.371 15.75c-1.328 1.171-2.2 1.633-3.104.91-.903-.72-.648-1.671.198-3.226l6.642-12.217c.804-1.478.292-3.428-1.133-4.319l-3.573-2.234c-2.62-1.638-2.786-4.739-.356-6.654l15.593-12.294c1.386-1.093 2.287-1.506 3.152-.741.867.766.563 1.71-.358 3.213l-6.351 10.362a3.026 3.026 0 0 0 .985 4.15l3.63 2.251c2.606 1.617 2.873 4.75.574 6.777l-15.9 14.023z" id="Fill-1-Copy-6" fill-rule="nonzero"/><path d="M23.437 52.431c-6.62 0-12.267-4.772-13.524-11.281-.146-.758-.866-1.252-1.607-1.102-.742.15-1.225.885-1.078 1.643 1.51 7.818 8.28 13.538 16.209 13.538.756 0 1.369-.626 1.369-1.399 0-.772-.613-1.399-1.37-1.399z" id="Combined-Shape-Copy-6" fill-rule="nonzero"/></g></g><g id="Group-56-Copy-6" mask="url(#mask-2)" fill="#FFBD2B"><g transform="translate(110.425 -39.22)"><path d="M93.56 35.663a1.224 1.224 0 0 1-.144-.577c0-9.914-7.992-17.951-17.85-17.951a17.751 17.751 0 0 0-13.133 5.793 1.212 1.212 0 0 1-1.72.07 1.229 1.229 0 0 1-.07-1.729 20.216 20.216 0 0 1 10.422-6.077A26.938 26.938 0 0 0 48.149 2.448c-9.813 0-18.7 5.283-23.456 13.655a1.215 1.215 0 0 1-1.229.605 18.332 18.332 0 0 0-2.603-.185A18.08 18.08 0 0 0 9.198 20.76a1.212 1.212 0 0 1-1.714-.156 1.23 1.23 0 0 1 .155-1.724 20.506 20.506 0 0 1 13.222-4.806c.715 0 1.427.037 2.132.11A29.37 29.37 0 0 1 48.149 0a29.37 29.37 0 0 1 25.157 14.184 20.99 20.99 0 0 1 2.132-.109c11.366 0 20.583 9.211 20.583 20.577 0 11.366-9.217 20.577-20.583 20.577-3.682 0-7.226-.969-10.34-2.781a1.228 1.228 0 0 1-.444-1.673 1.213 1.213 0 0 1 1.663-.446 18.073 18.073 0 0 0 9.121 2.452c9.686 0 17.597-7.577 18.121-17.118z" id="Combined-Shape" fill-rule="nonzero"/><path d="M35.216 56.359a29.63 29.63 0 0 1-4.763-2.93 20.66 20.66 0 0 1-9.7 2.402C9.293 55.831 0 46.537 0 35.07c0-.683.55-1.235 1.227-1.235a1.23 1.23 0 0 1 1.227 1.235c0 10.1 8.191 18.292 18.3 18.292 3.278 0 6.427-.861 9.196-2.474a1.22 1.22 0 0 1 1.377.101 27.213 27.213 0 0 0 4.22 2.77c.25-.433.602-.84 1.056-1.201l22.568-17.93c1.228-.976 2.028-1.344 2.793-.654.76.685.492 1.526-.323 2.866L51.79 53.035a2.716 2.716 0 0 0 .87 3.702l7.446 4.655c2.307 1.443 2.54 4.242.503 6.052L37.787 87.726c-1.176 1.045-1.948 1.457-2.75.815-.803-.643-.577-1.493.17-2.879l10.08-18.679c.711-1.32.257-3.059-1.006-3.855l-7.355-4.633c-.895-.564-1.467-1.32-1.71-2.136zM59.255 65.9c1.01-.898.915-2.046-.229-2.76l-7.446-4.655c-2.202-1.377-2.89-4.299-1.535-6.526l8.782-14.438-20.956 16.65c-1.04.826-.983 1.87.14 2.578l7.355 4.633c2.18 1.373 2.945 4.308 1.718 6.582L38.01 84.782 59.255 65.9z" id="Combined-Shape"/><path d="M32.842 96.179c1.012-.89.915-2.03-.235-2.741L29.38 91.44a4.72 4.72 0 0 1-1.542-6.484l4.573-7.443L20.16 87.15c-1.047.824-.991 1.862.134 2.564l3.176 1.981c2.185 1.363 2.953 4.279 1.721 6.538l-4.897 8.987 12.548-11.041zm-12.775 13.967c-1.18 1.038-1.954 1.447-2.759.807-.802-.64-.575-1.483.176-2.862l5.905-10.833c.714-1.311.259-3.04-1.008-3.83l-3.175-1.981c-2.33-1.453-2.477-4.202-.317-5.901l13.86-10.903c1.232-.969 2.033-1.335 2.802-.657.77.68.5 1.517-.318 2.85l-5.646 9.189a2.68 2.68 0 0 0 .876 3.68L33.69 91.7c2.316 1.434 2.553 4.212.51 6.01l-14.133 12.435z" id="Fill-1-Copy-6" fill-rule="nonzero"/><path d="M20.423 46.323c-5.717 0-10.594-4.27-11.68-10.095-.126-.678-.748-1.12-1.388-.985-.64.133-1.057.792-.931 1.47 1.304 6.995 7.15 12.113 13.999 12.113.653 0 1.182-.56 1.182-1.252 0-.691-.53-1.251-1.182-1.251z" id="Combined-Shape-Copy-6" fill-rule="nonzero"/></g></g><g id="Group-56-Copy-10" mask="url(#mask-2)" fill="#F3F3F8"><g transform="translate(712.958 -39.22)"><path d="M93.56 35.663a1.224 1.224 0 0 1-.144-.577c0-9.914-7.992-17.951-17.85-17.951a17.751 17.751 0 0 0-13.133 5.793 1.212 1.212 0 0 1-1.72.07 1.229 1.229 0 0 1-.07-1.729 20.216 20.216 0 0 1 10.422-6.077A26.938 26.938 0 0 0 48.149 2.448c-9.813 0-18.7 5.283-23.456 13.655a1.215 1.215 0 0 1-1.229.605 18.332 18.332 0 0 0-2.603-.185A18.08 18.08 0 0 0 9.198 20.76a1.212 1.212 0 0 1-1.714-.156 1.23 1.23 0 0 1 .155-1.724 20.506 20.506 0 0 1 13.222-4.806c.715 0 1.427.037 2.132.11A29.37 29.37 0 0 1 48.149 0a29.37 29.37 0 0 1 25.157 14.184 20.99 20.99 0 0 1 2.132-.109c11.366 0 20.583 9.211 20.583 20.577 0 11.366-9.217 20.577-20.583 20.577-3.682 0-7.226-.969-10.34-2.781a1.228 1.228 0 0 1-.444-1.673 1.213 1.213 0 0 1 1.663-.446 18.073 18.073 0 0 0 9.121 2.452c9.686 0 17.597-7.577 18.121-17.118z" id="Combined-Shape" fill-rule="nonzero"/><path d="M35.216 56.359a29.63 29.63 0 0 1-4.763-2.93 20.66 20.66 0 0 1-9.7 2.402C9.293 55.831 0 46.537 0 35.07c0-.683.55-1.235 1.227-1.235a1.23 1.23 0 0 1 1.227 1.235c0 10.1 8.191 18.292 18.3 18.292 3.278 0 6.427-.861 9.196-2.474a1.22 1.22 0 0 1 1.377.101 27.213 27.213 0 0 0 4.22 2.77c.25-.433.602-.84 1.056-1.201l22.568-17.93c1.228-.976 2.028-1.344 2.793-.654.76.685.492 1.526-.323 2.866L51.79 53.035a2.716 2.716 0 0 0 .87 3.702l7.446 4.655c2.307 1.443 2.54 4.242.503 6.052L37.787 87.726c-1.176 1.045-1.948 1.457-2.75.815-.803-.643-.577-1.493.17-2.879l10.08-18.679c.711-1.32.257-3.059-1.006-3.855l-7.355-4.633c-.895-.564-1.467-1.32-1.71-2.136zM59.255 65.9c1.01-.898.915-2.046-.229-2.76l-7.446-4.655c-2.202-1.377-2.89-4.299-1.535-6.526l8.782-14.438-20.956 16.65c-1.04.826-.983 1.87.14 2.578l7.355 4.633c2.18 1.373 2.945 4.308 1.718 6.582L38.01 84.782 59.255 65.9z" id="Combined-Shape"/><path d="M32.842 96.179c1.012-.89.915-2.03-.235-2.741L29.38 91.44a4.72 4.72 0 0 1-1.542-6.484l4.573-7.443L20.16 87.15c-1.047.824-.991 1.862.134 2.564l3.176 1.981c2.185 1.363 2.953 4.279 1.721 6.538l-4.897 8.987 12.548-11.041zm-12.775 13.967c-1.18 1.038-1.954 1.447-2.759.807-.802-.64-.575-1.483.176-2.862l5.905-10.833c.714-1.311.259-3.04-1.008-3.83l-3.175-1.981c-2.33-1.453-2.477-4.202-.317-5.901l13.86-10.903c1.232-.969 2.033-1.335 2.802-.657.77.68.5 1.517-.318 2.85l-5.646 9.189a2.68 2.68 0 0 0 .876 3.68L33.69 91.7c2.316 1.434 2.553 4.212.51 6.01l-14.133 12.435z" id="Fill-1-Copy-6" fill-rule="nonzero"/><path d="M20.423 46.323c-5.717 0-10.594-4.27-11.68-10.095-.126-.678-.748-1.12-1.388-.985-.64.133-1.057.792-.931 1.47 1.304 6.995 7.15 12.113 13.999 12.113.653 0 1.182-.56 1.182-1.252 0-.691-.53-1.251-1.182-1.251z" id="Combined-Shape-Copy-6" fill-rule="nonzero"/></g></g><g id="Group-56-Copy-4" mask="url(#mask-2)" fill="#F3F3F8"><g transform="translate(104.823 220.917)"><path d="M106.03 40.314a1.379 1.379 0 0 1-.163-.652c0-11.207-9.072-20.292-20.263-20.292a20.188 20.188 0 0 0-14.908 6.548 1.38 1.38 0 0 1-1.952.08 1.385 1.385 0 0 1-.08-1.955 22.969 22.969 0 0 1 11.83-6.87 30.607 30.607 0 0 0-26.01-14.406 30.606 30.606 0 0 0-26.627 15.437 1.38 1.38 0 0 1-1.395.683 20.89 20.89 0 0 0-2.955-.209 20.575 20.575 0 0 0-13.239 4.79 1.38 1.38 0 0 1-1.946-.176 1.385 1.385 0 0 1 .177-1.948 23.335 23.335 0 0 1 15.008-5.433c.812 0 1.62.041 2.42.123A33.368 33.368 0 0 1 54.483 0 33.368 33.368 0 0 1 83.04 16.034c.8-.082 1.607-.123 2.42-.123 12.901 0 23.364 10.412 23.364 23.261 0 12.849-10.463 23.261-23.365 23.261a23.34 23.34 0 0 1-11.738-3.144 1.385 1.385 0 0 1-.503-1.89 1.38 1.38 0 0 1 1.887-.505 20.58 20.58 0 0 0 10.354 2.772c10.995 0 19.975-8.566 20.57-19.352z" id="Combined-Shape" fill-rule="nonzero"/><path d="M39.731 63.327a33.418 33.418 0 0 1-5.373-3.313 23.271 23.271 0 0 1-10.944 2.717C10.484 62.73 0 52.224 0 39.26c0-.771.62-1.396 1.384-1.396A1.39 1.39 0 0 1 2.77 39.26c0 11.419 9.241 20.679 20.645 20.679 3.699 0 7.252-.975 10.376-2.798a1.375 1.375 0 0 1 1.554.115 30.697 30.697 0 0 0 4.761 3.131c.282-.489.679-.95 1.19-1.358l25.462-20.268c1.385-1.103 2.288-1.52 3.152-.74.857.775.554 1.726-.366 3.24L58.43 59.57c-.866 1.427-.425 3.305.982 4.186l8.4 5.262c2.604 1.631 2.866 4.795.568 6.84L42.63 98.787c-1.326 1.18-2.198 1.646-3.103.92-.905-.726-.65-1.687.193-3.254l11.372-21.115c.803-1.491.29-3.458-1.135-4.358l-8.298-5.238c-1.01-.636-1.655-1.492-1.929-2.414zm27.12 10.787c1.14-1.015 1.033-2.312-.257-3.12l-8.4-5.263c-2.485-1.556-3.261-4.859-1.733-7.376l9.908-16.322-23.643 18.822c-1.173.934-1.109 2.114.158 2.914l8.298 5.238c2.459 1.552 3.323 4.87 1.938 7.44l-10.237 19.01 23.969-21.343z" id="Combined-Shape"/><path d="M37.247 108.661c1.14-1.004 1.03-2.288-.264-3.09l-3.63-2.253a5.33 5.33 0 0 1-1.736-7.31l5.145-8.394L22.98 98.48c-1.178.929-1.115 2.1.15 2.891l3.574 2.234c2.458 1.537 3.322 4.825 1.936 7.373l-5.51 10.134 14.117-12.45zm-14.371 15.75c-1.328 1.171-2.2 1.633-3.104.91-.903-.72-.648-1.671.198-3.226l6.642-12.217c.804-1.478.292-3.428-1.133-4.319l-3.573-2.234c-2.62-1.638-2.786-4.739-.356-6.654l15.593-12.294c1.386-1.093 2.287-1.506 3.152-.741.867.766.563 1.71-.358 3.213l-6.351 10.362a3.026 3.026 0 0 0 .985 4.15l3.63 2.251c2.606 1.617 2.873 4.75.574 6.777l-15.9 14.023z" id="Fill-1-Copy-6" fill-rule="nonzero"/><path d="M23.437 52.431c-6.62 0-12.267-4.772-13.524-11.281-.146-.758-.866-1.252-1.607-1.102-.742.15-1.225.885-1.078 1.643 1.51 7.818 8.28 13.538 16.209 13.538.756 0 1.369-.626 1.369-1.399 0-.772-.613-1.399-1.37-1.399z" id="Combined-Shape-Copy-6" fill-rule="nonzero"/></g></g><g id="Group-56-Copy-2" mask="url(#mask-2)" fill="#FFBD2B"><g transform="translate(394.488 228.121)"><path d="M93.56 35.663a1.224 1.224 0 0 1-.144-.577c0-9.914-7.992-17.951-17.85-17.951a17.751 17.751 0 0 0-13.133 5.793 1.212 1.212 0 0 1-1.72.07 1.229 1.229 0 0 1-.07-1.729 20.216 20.216 0 0 1 10.422-6.077A26.938 26.938 0 0 0 48.149 2.448c-9.813 0-18.7 5.283-23.456 13.655a1.215 1.215 0 0 1-1.229.605 18.332 18.332 0 0 0-2.603-.185A18.08 18.08 0 0 0 9.198 20.76a1.212 1.212 0 0 1-1.714-.156 1.23 1.23 0 0 1 .155-1.724 20.506 20.506 0 0 1 13.222-4.806c.715 0 1.427.037 2.132.11A29.37 29.37 0 0 1 48.149 0a29.37 29.37 0 0 1 25.157 14.184 20.99 20.99 0 0 1 2.132-.109c11.366 0 20.583 9.211 20.583 20.577 0 11.366-9.217 20.577-20.583 20.577-3.682 0-7.226-.969-10.34-2.781a1.228 1.228 0 0 1-.444-1.673 1.213 1.213 0 0 1 1.663-.446 18.073 18.073 0 0 0 9.121 2.452c9.686 0 17.597-7.577 18.121-17.118z" id="Combined-Shape" fill-rule="nonzero"/><path d="M35.216 56.359a29.63 29.63 0 0 1-4.763-2.93 20.66 20.66 0 0 1-9.7 2.402C9.293 55.831 0 46.537 0 35.07c0-.683.55-1.235 1.227-1.235a1.23 1.23 0 0 1 1.227 1.235c0 10.1 8.191 18.292 18.3 18.292 3.278 0 6.427-.861 9.196-2.474a1.22 1.22 0 0 1 1.377.101 27.213 27.213 0 0 0 4.22 2.77c.25-.433.602-.84 1.056-1.201l22.568-17.93c1.228-.976 2.028-1.344 2.793-.654.76.685.492 1.526-.323 2.866L51.79 53.035a2.716 2.716 0 0 0 .87 3.702l7.446 4.655c2.307 1.443 2.54 4.242.503 6.052L37.787 87.726c-1.176 1.045-1.948 1.457-2.75.815-.803-.643-.577-1.493.17-2.879l10.08-18.679c.711-1.32.257-3.059-1.006-3.855l-7.355-4.633c-.895-.564-1.467-1.32-1.71-2.136zM59.255 65.9c1.01-.898.915-2.046-.229-2.76l-7.446-4.655c-2.202-1.377-2.89-4.299-1.535-6.526l8.782-14.438-20.956 16.65c-1.04.826-.983 1.87.14 2.578l7.355 4.633c2.18 1.373 2.945 4.308 1.718 6.582L38.01 84.782 59.255 65.9z" id="Combined-Shape"/><path d="M32.842 96.179c1.012-.89.915-2.03-.235-2.741L29.38 91.44a4.72 4.72 0 0 1-1.542-6.484l4.573-7.443L20.16 87.15c-1.047.824-.991 1.862.134 2.564l3.176 1.981c2.185 1.363 2.953 4.279 1.721 6.538l-4.897 8.987 12.548-11.041zm-12.775 13.967c-1.18 1.038-1.954 1.447-2.759.807-.802-.64-.575-1.483.176-2.862l5.905-10.833c.714-1.311.259-3.04-1.008-3.83l-3.175-1.981c-2.33-1.453-2.477-4.202-.317-5.901l13.86-10.903c1.232-.969 2.033-1.335 2.802-.657.77.68.5 1.517-.318 2.85l-5.646 9.189a2.68 2.68 0 0 0 .876 3.68L33.69 91.7c2.316 1.434 2.553 4.212.51 6.01l-14.133 12.435z" id="Fill-1-Copy-6" fill-rule="nonzero"/><path d="M20.423 46.323c-5.717 0-10.594-4.27-11.68-10.095-.126-.678-.748-1.12-1.388-.985-.64.133-1.057.792-.931 1.47 1.304 6.995 7.15 12.113 13.999 12.113.653 0 1.182-.56 1.182-1.252 0-.691-.53-1.251-1.182-1.251z" id="Combined-Shape-Copy-6" fill-rule="nonzero"/></g></g><g id="Group-56-Copy-3" mask="url(#mask-2)" fill="#F3F3F8"><g transform="translate(552.923 88.847)"><path d="M93.56 35.663a1.224 1.224 0 0 1-.144-.577c0-9.914-7.992-17.951-17.85-17.951a17.751 17.751 0 0 0-13.133 5.793 1.212 1.212 0 0 1-1.72.07 1.229 1.229 0 0 1-.07-1.729 20.216 20.216 0 0 1 10.422-6.077A26.938 26.938 0 0 0 48.149 2.448c-9.813 0-18.7 5.283-23.456 13.655a1.215 1.215 0 0 1-1.229.605 18.332 18.332 0 0 0-2.603-.185A18.08 18.08 0 0 0 9.198 20.76a1.212 1.212 0 0 1-1.714-.156 1.23 1.23 0 0 1 .155-1.724 20.506 20.506 0 0 1 13.222-4.806c.715 0 1.427.037 2.132.11A29.37 29.37 0 0 1 48.149 0a29.37 29.37 0 0 1 25.157 14.184 20.99 20.99 0 0 1 2.132-.109c11.366 0 20.583 9.211 20.583 20.577 0 11.366-9.217 20.577-20.583 20.577-3.682 0-7.226-.969-10.34-2.781a1.228 1.228 0 0 1-.444-1.673 1.213 1.213 0 0 1 1.663-.446 18.073 18.073 0 0 0 9.121 2.452c9.686 0 17.597-7.577 18.121-17.118z" id="Combined-Shape" fill-rule="nonzero"/><path d="M35.216 56.359a29.63 29.63 0 0 1-4.763-2.93 20.66 20.66 0 0 1-9.7 2.402C9.293 55.831 0 46.537 0 35.07c0-.683.55-1.235 1.227-1.235a1.23 1.23 0 0 1 1.227 1.235c0 10.1 8.191 18.292 18.3 18.292 3.278 0 6.427-.861 9.196-2.474a1.22 1.22 0 0 1 1.377.101 27.213 27.213 0 0 0 4.22 2.77c.25-.433.602-.84 1.056-1.201l22.568-17.93c1.228-.976 2.028-1.344 2.793-.654.76.685.492 1.526-.323 2.866L51.79 53.035a2.716 2.716 0 0 0 .87 3.702l7.446 4.655c2.307 1.443 2.54 4.242.503 6.052L37.787 87.726c-1.176 1.045-1.948 1.457-2.75.815-.803-.643-.577-1.493.17-2.879l10.08-18.679c.711-1.32.257-3.059-1.006-3.855l-7.355-4.633c-.895-.564-1.467-1.32-1.71-2.136zM59.255 65.9c1.01-.898.915-2.046-.229-2.76l-7.446-4.655c-2.202-1.377-2.89-4.299-1.535-6.526l8.782-14.438-20.956 16.65c-1.04.826-.983 1.87.14 2.578l7.355 4.633c2.18 1.373 2.945 4.308 1.718 6.582L38.01 84.782 59.255 65.9z" id="Combined-Shape"/><path d="M32.842 96.179c1.012-.89.915-2.03-.235-2.741L29.38 91.44a4.72 4.72 0 0 1-1.542-6.484l4.573-7.443L20.16 87.15c-1.047.824-.991 1.862.134 2.564l3.176 1.981c2.185 1.363 2.953 4.279 1.721 6.538l-4.897 8.987 12.548-11.041zm-12.775 13.967c-1.18 1.038-1.954 1.447-2.759.807-.802-.64-.575-1.483.176-2.862l5.905-10.833c.714-1.311.259-3.04-1.008-3.83l-3.175-1.981c-2.33-1.453-2.477-4.202-.317-5.901l13.86-10.903c1.232-.969 2.033-1.335 2.802-.657.77.68.5 1.517-.318 2.85l-5.646 9.189a2.68 2.68 0 0 0 .876 3.68L33.69 91.7c2.316 1.434 2.553 4.212.51 6.01l-14.133 12.435z" id="Fill-1-Copy-6" fill-rule="nonzero"/><path d="M20.423 46.323c-5.717 0-10.594-4.27-11.68-10.095-.126-.678-.748-1.12-1.388-.985-.64.133-1.057.792-.931 1.47 1.304 6.995 7.15 12.113 13.999 12.113.653 0 1.182-.56 1.182-1.252 0-.691-.53-1.251-1.182-1.251z" id="Combined-Shape-Copy-6" fill-rule="nonzero"/></g></g><g id="Group-56-Copy-11" mask="url(#mask-2)" fill="#D6D6E4"><g transform="translate(254.456 88.847)"><path d="M93.56 35.663a1.224 1.224 0 0 1-.144-.577c0-9.914-7.992-17.951-17.85-17.951a17.751 17.751 0 0 0-13.133 5.793 1.212 1.212 0 0 1-1.72.07 1.229 1.229 0 0 1-.07-1.729 20.216 20.216 0 0 1 10.422-6.077A26.938 26.938 0 0 0 48.149 2.448c-9.813 0-18.7 5.283-23.456 13.655a1.215 1.215 0 0 1-1.229.605 18.332 18.332 0 0 0-2.603-.185A18.08 18.08 0 0 0 9.198 20.76a1.212 1.212 0 0 1-1.714-.156 1.23 1.23 0 0 1 .155-1.724 20.506 20.506 0 0 1 13.222-4.806c.715 0 1.427.037 2.132.11A29.37 29.37 0 0 1 48.149 0a29.37 29.37 0 0 1 25.157 14.184 20.99 20.99 0 0 1 2.132-.109c11.366 0 20.583 9.211 20.583 20.577 0 11.366-9.217 20.577-20.583 20.577-3.682 0-7.226-.969-10.34-2.781a1.228 1.228 0 0 1-.444-1.673 1.213 1.213 0 0 1 1.663-.446 18.073 18.073 0 0 0 9.121 2.452c9.686 0 17.597-7.577 18.121-17.118z" id="Combined-Shape" fill-rule="nonzero"/><path d="M35.216 56.359a29.63 29.63 0 0 1-4.763-2.93 20.66 20.66 0 0 1-9.7 2.402C9.293 55.831 0 46.537 0 35.07c0-.683.55-1.235 1.227-1.235a1.23 1.23 0 0 1 1.227 1.235c0 10.1 8.191 18.292 18.3 18.292 3.278 0 6.427-.861 9.196-2.474a1.22 1.22 0 0 1 1.377.101 27.213 27.213 0 0 0 4.22 2.77c.25-.433.602-.84 1.056-1.201l22.568-17.93c1.228-.976 2.028-1.344 2.793-.654.76.685.492 1.526-.323 2.866L51.79 53.035a2.716 2.716 0 0 0 .87 3.702l7.446 4.655c2.307 1.443 2.54 4.242.503 6.052L37.787 87.726c-1.176 1.045-1.948 1.457-2.75.815-.803-.643-.577-1.493.17-2.879l10.08-18.679c.711-1.32.257-3.059-1.006-3.855l-7.355-4.633c-.895-.564-1.467-1.32-1.71-2.136zM59.255 65.9c1.01-.898.915-2.046-.229-2.76l-7.446-4.655c-2.202-1.377-2.89-4.299-1.535-6.526l8.782-14.438-20.956 16.65c-1.04.826-.983 1.87.14 2.578l7.355 4.633c2.18 1.373 2.945 4.308 1.718 6.582L38.01 84.782 59.255 65.9z" id="Combined-Shape"/><path d="M32.842 96.179c1.012-.89.915-2.03-.235-2.741L29.38 91.44a4.72 4.72 0 0 1-1.542-6.484l4.573-7.443L20.16 87.15c-1.047.824-.991 1.862.134 2.564l3.176 1.981c2.185 1.363 2.953 4.279 1.721 6.538l-4.897 8.987 12.548-11.041zm-12.775 13.967c-1.18 1.038-1.954 1.447-2.759.807-.802-.64-.575-1.483.176-2.862l5.905-10.833c.714-1.311.259-3.04-1.008-3.83l-3.175-1.981c-2.33-1.453-2.477-4.202-.317-5.901l13.86-10.903c1.232-.969 2.033-1.335 2.802-.657.77.68.5 1.517-.318 2.85l-5.646 9.189a2.68 2.68 0 0 0 .876 3.68L33.69 91.7c2.316 1.434 2.553 4.212.51 6.01l-14.133 12.435z" id="Fill-1-Copy-6" fill-rule="nonzero"/><path d="M20.423 46.323c-5.717 0-10.594-4.27-11.68-10.095-.126-.678-.748-1.12-1.388-.985-.64.133-1.057.792-.931 1.47 1.304 6.995 7.15 12.113 13.999 12.113.653 0 1.182-.56 1.182-1.252 0-.691-.53-1.251-1.182-1.251z" id="Combined-Shape-Copy-6" fill-rule="nonzero"/></g></g><g id="Group-56-Copy-7" mask="url(#mask-2)" fill="#F3F3F8"><g transform="translate(858.59 100.854)"><path d="M82.645 32.045a1.115 1.115 0 0 1-.126-.519c0-8.908-7.056-16.13-15.76-16.13-4.465 0-8.629 1.91-11.595 5.206a1.057 1.057 0 0 1-1.518.063 1.118 1.118 0 0 1-.063-1.554c2.47-2.743 5.671-4.642 9.202-5.46C58.485 6.604 50.899 2.2 42.554 2.2c-8.665 0-16.51 4.747-20.71 12.27a1.067 1.067 0 0 1-1.085.543 15.908 15.908 0 0 0-2.298-.166c-3.82 0-7.432 1.362-10.297 3.808a1.058 1.058 0 0 1-1.513-.14 1.118 1.118 0 0 1 .137-1.55 17.915 17.915 0 0 1 13.555-4.22C25.002 4.911 33.357 0 42.553 0c9.197 0 17.552 4.91 22.211 12.745a18.06 18.06 0 0 1 1.882-.098c10.035 0 18.173 8.277 18.173 18.49s-8.138 18.49-18.173 18.49c-3.25 0-6.38-.871-9.13-2.5a1.114 1.114 0 0 1-.391-1.503 1.061 1.061 0 0 1 1.468-.4 15.743 15.743 0 0 0 8.053 2.203c8.551 0 15.536-6.81 16-15.382z" id="Combined-Shape" fill-rule="nonzero"/><path d="M31.153 50.05a26.144 26.144 0 0 1-4.213-2.634 18.05 18.05 0 0 1-8.581 2.16C8.22 49.576 0 41.224 0 30.919c0-.613.486-1.11 1.086-1.11.6 0 1.085.497 1.085 1.11 0 9.077 7.246 16.437 16.188 16.437 2.9 0 5.686-.774 8.136-2.223a1.066 1.066 0 0 1 1.218.09 24.041 24.041 0 0 0 3.733 2.49c.221-.39.532-.756.934-1.08l19.963-16.11c1.087-.877 1.794-1.209 2.472-.588.672.616.434 1.371-.287 2.575l-8.714 14.553c-.68 1.134-.333 2.626.77 3.327l6.586 4.182c2.042 1.297 2.247 3.811.445 5.438L33.427 78.235c-1.04.938-1.724 1.309-2.433.732-.71-.578-.51-1.342.151-2.587l8.916-16.784c.63-1.185.228-2.749-.89-3.464l-6.506-4.163c-.791-.507-1.297-1.187-1.512-1.92zm21.265 8.574c.893-.807.81-1.838-.202-2.48l-6.587-4.183c-1.948-1.237-2.557-3.863-1.358-5.864l7.769-12.973-18.54 14.96c-.919.743-.868 1.681.125 2.317l6.506 4.163c1.928 1.234 2.606 3.87 1.52 5.915l-8.027 15.11 18.794-16.965z" id="Combined-Shape"/><path d="M29.237 85.777c.886-.796.8-1.814-.206-2.45l-2.823-1.785c-1.937-1.224-2.54-3.815-1.35-5.793l4.001-6.652L18.14 77.71c-.916.735-.867 1.664.117 2.29l2.78 1.771c1.912 1.218 2.583 3.823 1.506 5.843l-4.286 8.03 10.98-9.866zM18.059 98.258c-1.032.928-1.71 1.293-2.414.72-.702-.57-.504-1.324.154-2.556l5.166-9.681c.625-1.172.227-2.717-.881-3.423l-2.78-1.77c-2.037-1.298-2.166-3.755-.276-5.273l12.128-9.743c1.077-.866 1.779-1.193 2.452-.587.673.608.437 1.355-.28 2.547l-4.939 8.21c-.675 1.123-.332 2.594.766 3.289l2.824 1.785c2.027 1.28 2.234 3.763.446 5.37L18.06 98.258z" id="Fill-1-Copy-6" fill-rule="nonzero"/><path d="M18.147 41.014c-5.115 0-9.48-3.767-10.45-8.907-.113-.598-.67-.987-1.243-.87-.573.119-.946.7-.833 1.298 1.167 6.172 6.398 10.688 12.526 10.688.584 0 1.057-.495 1.057-1.105s-.473-1.104-1.057-1.104z" id="Combined-Shape-Copy-6" fill-rule="nonzero"/></g></g><g id="Group-56-Copy-9" mask="url(#mask-2)" fill="#F3F3F8"><g id="Combined-Shape"><path d="M82.645 32.045a1.115 1.115 0 0 1-.126-.519c0-8.908-7.056-16.13-15.76-16.13-4.465 0-8.629 1.91-11.595 5.206a1.057 1.057 0 0 1-1.518.063 1.118 1.118 0 0 1-.063-1.554c2.47-2.743 5.671-4.642 9.202-5.46C58.485 6.604 50.899 2.2 42.554 2.2c-8.665 0-16.51 4.747-20.71 12.27a1.067 1.067 0 0 1-1.085.543 15.908 15.908 0 0 0-2.298-.166c-3.82 0-7.432 1.362-10.297 3.808a1.058 1.058 0 0 1-1.513-.14 1.118 1.118 0 0 1 .137-1.55 17.915 17.915 0 0 1 13.555-4.22C25.002 4.911 33.357 0 42.553 0c9.197 0 17.552 4.91 22.211 12.745a18.06 18.06 0 0 1 1.882-.098c10.035 0 18.173 8.277 18.173 18.49s-8.138 18.49-18.173 18.49c-3.25 0-6.38-.871-9.13-2.5a1.114 1.114 0 0 1-.391-1.503 1.061 1.061 0 0 1 1.468-.4 15.743 15.743 0 0 0 8.053 2.203c8.551 0 15.536-6.81 16-15.382z" fill-rule="nonzero" transform="translate(-42.41 100.854)"/><path d="M31.153 50.05a26.144 26.144 0 0 1-4.213-2.634 18.05 18.05 0 0 1-8.581 2.16C8.22 49.576 0 41.224 0 30.919c0-.613.486-1.11 1.086-1.11.6 0 1.085.497 1.085 1.11 0 9.077 7.246 16.437 16.188 16.437 2.9 0 5.686-.774 8.136-2.223a1.066 1.066 0 0 1 1.218.09 24.041 24.041 0 0 0 3.733 2.49c.221-.39.532-.756.934-1.08l19.963-16.11c1.087-.877 1.794-1.209 2.472-.588.672.616.434 1.371-.287 2.575l-8.714 14.553c-.68 1.134-.333 2.626.77 3.327l6.586 4.182c2.042 1.297 2.247 3.811.445 5.438L33.427 78.235c-1.04.938-1.724 1.309-2.433.732-.71-.578-.51-1.342.151-2.587l8.916-16.784c.63-1.185.228-2.749-.89-3.464l-6.506-4.163c-.791-.507-1.297-1.187-1.512-1.92zm21.265 8.574c.893-.807.81-1.838-.202-2.48l-6.587-4.183c-1.948-1.237-2.557-3.863-1.358-5.864l7.769-12.973-18.54 14.96c-.919.743-.868 1.681.125 2.317l6.506 4.163c1.928 1.234 2.606 3.87 1.52 5.915l-8.027 15.11 18.794-16.965z" transform="translate(-42.41 100.854)"/></g></g></g></g></g></svg>